<?xml version="1.0" encoding="UTF-8"?>
<!DOCTYPE svg PUBLIC "-//W3C//DTD SVG 1.1//EN" "http://www.w3.org/Graphics/SVG/1.1/DTD/svg11.dtd">
<svg xmlns="http://www.w3.org/2000/svg" version="1.1" width="103px" height="103px" style="shape-rendering:geometricPrecision; text-rendering:geometricPrecision; image-rendering:optimizeQuality; fill-rule:evenodd; clip-rule:evenodd" xmlns:xlink="http://www.w3.org/1999/xlink">
<g><path style="opacity:1" fill="#020204" d="M -0.5,-0.5 C 33.8333,-0.5 68.1667,-0.5 102.5,-0.5C 102.5,33.8333 102.5,68.1667 102.5,102.5C 68.1667,102.5 33.8333,102.5 -0.5,102.5C -0.5,68.1667 -0.5,33.8333 -0.5,-0.5 Z"/></g>
<g><path style="opacity:1" fill="#06242c" d="M 78.5,14.5 C 76.8606,16.8061 74.8606,18.8061 72.5,20.5C 72.7349,16.6757 74.7349,14.6757 78.5,14.5 Z"/></g>
<g><path style="opacity:1" fill="#06151b" d="M 78.5,14.5 C 82.97,13.5139 87.6367,13.1805 92.5,13.5C 92.3433,14.8734 92.51,16.2068 93,17.5C 94,16.1667 95,16.1667 96,17.5C 96.3085,24.9576 96.8085,32.1243 97.5,39C 96.5838,39.3742 95.7504,39.8742 95,40.5C 92.4815,38.6719 89.9815,37.0052 87.5,35.5C 90.1667,35.5 92.8333,35.5 95.5,35.5C 95.7719,31.0983 95.4386,26.7649 94.5,22.5C 91.8703,20.5551 89.7036,18.2218 88,15.5C 84.8948,14.6328 81.7281,14.2994 78.5,14.5 Z"/></g>
<g><path style="opacity:1" fill="#2eaccb" d="M 39.5,15.5 C 45.8333,15.5 52.1667,15.5 58.5,15.5C 59.6638,18.1865 61.4971,20.5199 64,22.5C 64.6667,24.5 65.3333,26.5 66,28.5C 66.6667,43.5 66.6667,58.5 66,73.5C 65.2564,75.8997 64.4231,78.233 63.5,80.5C 62.5188,82.3092 61.0188,83.6426 59,84.5C 58.5172,85.448 58.3505,86.448 58.5,87.5C 52.1667,87.5 45.8333,87.5 39.5,87.5C 39.5,63.5 39.5,39.5 39.5,15.5 Z"/></g>
<g><path style="opacity:1" fill="#071a26" d="M 39.5,15.5 C 44.6405,14.5119 49.9738,14.1786 55.5,14.5C 60.3054,15.9596 63.972,18.9596 66.5,23.5C 68.2433,21.9617 70.2433,20.9617 72.5,20.5C 69.2865,30.4454 70.1198,40.112 75,49.5C 79.048,53.8797 82.7147,58.5463 86,63.5C 86.6667,67.5 86.6667,71.5 86,75.5C 84.0295,77.6684 81.8629,78.0017 79.5,76.5C 83.824,75.9983 85.824,73.4983 85.5,69C 85.1667,67.5 84.8333,66 84.5,64.5C 81.8248,61.7906 79.1581,59.1239 76.5,56.5C 75.5481,54.9547 75.2148,53.288 75.5,51.5C 71.4578,51.7039 70.1245,50.0372 71.5,46.5C 69.7601,43.0191 68.5934,39.3524 68,35.5C 67.3333,48.8333 67.3333,62.1667 68,75.5C 68.1787,71.9748 68.6787,68.6414 69.5,65.5C 69.1817,70.6591 69.8483,75.6591 71.5,80.5C 70.0772,78.4551 68.0772,77.4551 65.5,77.5C 65.7148,79.1788 65.0481,80.1788 63.5,80.5C 64.4231,78.233 65.2564,75.8997 66,73.5C 66.6667,58.5 66.6667,43.5 66,28.5C 65.3333,26.5 64.6667,24.5 64,22.5C 61.4971,20.5199 59.6638,18.1865 58.5,15.5C 52.1667,15.5 45.8333,15.5 39.5,15.5 Z"/></g>
<g><path style="opacity:1" fill="#46a8c1" d="M 6.5,15.5 C 13.2547,14.8771 19.588,15.5437 25.5,17.5C 20.1563,17.334 14.8229,17.5006 9.5,18C 9,18.5 8.5,19 8,19.5C 7.50004,41.4975 7.33337,63.4975 7.5,85.5C 14.1865,86.172 20.5199,85.172 26.5,82.5C 28.596,80.5252 30.2626,78.1919 31.5,75.5C 32.4716,58.8618 32.8049,42.1952 32.5,25.5C 33.6617,42.3283 33.8284,59.3283 33,76.5C 31.1059,80.4634 28.6059,83.9634 25.5,87C 19.1754,87.4995 12.8421,87.6662 6.5,87.5C 6.5,63.5 6.5,39.5 6.5,15.5 Z"/></g>
<g><path style="opacity:1" fill="#24b3d4" d="M 25.5,17.5 C 27.0174,17.5106 28.1841,18.1772 29,19.5C 30.8205,21.1458 31.9872,23.1458 32.5,25.5C 32.8049,42.1952 32.4716,58.8618 31.5,75.5C 30.2626,78.1919 28.596,80.5252 26.5,82.5C 20.5199,85.172 14.1865,86.172 7.5,85.5C 7.33337,63.4975 7.50004,41.4975 8,19.5C 8.5,19 9,18.5 9.5,18C 14.8229,17.5006 20.1563,17.334 25.5,17.5 Z"/></g>
<g><path style="opacity:1" fill="#02050a" d="M 22.5,27.5 C 23.1174,27.6107 23.6174,27.944 24,28.5C 24.6667,43.8333 24.6667,59.1667 24,74.5C 23.3292,75.2524 22.4959,75.5858 21.5,75.5C 19.8333,75.5 18.1667,75.5 16.5,75.5C 16.3334,59.8298 16.5001,44.1631 17,28.5C 18.6995,27.5939 20.5328,27.2606 22.5,27.5 Z"/></g>
<g><path style="opacity:1" fill="#042434" d="M 87.5,35.5 C 86.2318,33.0948 85.5651,30.4282 85.5,27.5C 83.6096,27.2965 82.1096,27.9632 81,29.5C 80.5634,33.6227 81.0634,37.6227 82.5,41.5C 81.6963,39.8113 80.6963,38.1446 79.5,36.5C 76.6074,29.2599 78.9408,25.5932 86.5,25.5C 87.2071,28.7861 87.5405,32.1194 87.5,35.5 Z"/></g>
<g><path style="opacity:1" fill="#05202f" d="M 53.5,13.5 C 54.4916,13.3284 55.1583,13.6618 55.5,14.5C 49.9738,14.1786 44.6405,14.5119 39.5,15.5C 39.5,39.5 39.5,63.5 39.5,87.5C 45.8333,87.5 52.1667,87.5 58.5,87.5C 58.3505,86.448 58.5172,85.448 59,84.5C 61.0188,83.6426 62.5188,82.3092 63.5,80.5C 63.6495,81.552 63.4828,82.552 63,83.5C 61.3333,85.5447 59.4999,87.378 57.5,89C 50.7526,89.7925 44.0859,89.6258 37.5,88.5C 37.3334,63.8311 37.5,39.1644 38,14.5C 43.0717,13.5286 48.2384,13.1953 53.5,13.5 Z"/></g>
<g><path style="opacity:1" fill="#021422" d="M 22.5,27.5 C 20.5328,27.2606 18.6995,27.5939 17,28.5C 16.5001,44.1631 16.3334,59.8298 16.5,75.5C 18.1667,75.5 19.8333,75.5 21.5,75.5C 19.7354,76.4614 17.7354,76.7947 15.5,76.5C 15.5,59.5 15.5,42.5 15.5,25.5C 17.5273,25.3379 19.5273,25.5045 21.5,26C 22.056,26.3826 22.3893,26.8826 22.5,27.5 Z"/></g>
<g><path style="opacity:1" fill="#134d5e" d="M 53.5,26.5 C 51.2188,26.0773 49.5521,26.744 48.5,28.5C 48.5,43.5 48.5,58.5 48.5,73.5C 48.5,74.5 48.5,75.5 48.5,76.5C 50.1667,76.5 51.8333,76.5 53.5,76.5C 52.4324,77.4345 51.099,77.7678 49.5,77.5C 47.514,60.5322 46.8473,43.1989 47.5,25.5C 49.7354,25.2053 51.7354,25.5386 53.5,26.5 Z"/></g>
<g><path style="opacity:1" fill="#071219" d="M 53.5,13.5 C 48.2384,13.1953 43.0717,13.5286 38,14.5C 37.5,39.1644 37.3334,63.8311 37.5,88.5C 36.5318,86.3926 36.1984,84.0593 36.5,81.5C 35.1779,81.33 34.0113,81.6634 33,82.5C 32.6667,84.1667 32.3333,85.8333 32,87.5C 31.6667,87.1667 31.3333,86.8333 31,86.5C 23.5999,90.108 15.7666,91.2746 7.5,90C 6.74756,89.3292 6.41423,88.4959 6.5,87.5C 12.8421,87.6662 19.1754,87.4995 25.5,87C 28.6059,83.9634 31.1059,80.4634 33,76.5C 33.8284,59.3283 33.6617,42.3283 32.5,25.5C 31.9872,23.1458 30.8205,21.1458 29,19.5C 28.1841,18.1772 27.0174,17.5106 25.5,17.5C 19.588,15.5437 13.2547,14.8771 6.5,15.5C 7.50249,13.9891 8.16916,12.3224 8.5,10.5C 11.494,11.1542 14.494,11.8208 17.5,12.5C 19.0998,12.4493 20.5998,12.1159 22,11.5C 24.6604,12.8343 27.4937,13.6676 30.5,14C 30.5,15.3333 30.5,16.6667 30.5,18C 32.1341,18.4935 33.8008,18.6602 35.5,18.5C 35.1412,16.2341 35.8078,14.4007 37.5,13C 43.0164,12.1826 48.3497,12.3493 53.5,13.5 Z"/></g>
<g><path style="opacity:1" fill="#061c26" d="M 53.5,26.5 C 55.0174,26.5106 56.1841,27.1772 57,28.5C 57.6667,43.1667 57.6667,57.8333 57,72.5C 56.2086,73.745 55.7086,75.0783 55.5,76.5C 54.8333,76.5 54.1667,76.5 53.5,76.5C 51.8333,76.5 50.1667,76.5 48.5,76.5C 48.5,75.5 48.5,74.5 48.5,73.5C 51.0082,76.1844 53.1748,75.8511 55,72.5C 55.8328,58.1551 55.6661,43.8217 54.5,29.5C 52.3817,28.844 50.3817,28.5107 48.5,28.5C 49.5521,26.744 51.2188,26.0773 53.5,26.5 Z"/></g>
<g><path style="opacity:1" fill="#27b5d6" d="M 78.5,14.5 C 81.7281,14.2994 84.8948,14.6328 88,15.5C 89.7036,18.2218 91.8703,20.5551 94.5,22.5C 95.4386,26.7649 95.7719,31.0983 95.5,35.5C 92.8333,35.5 90.1667,35.5 87.5,35.5C 87.5405,32.1194 87.2071,28.7861 86.5,25.5C 78.9408,25.5932 76.6074,29.2599 79.5,36.5C 80.6963,38.1446 81.6963,39.8113 82.5,41.5C 84.7386,44.9527 87.2386,48.286 90,51.5C 92.0144,55.3691 93.8478,59.3691 95.5,63.5C 95.5,67.5 95.5,71.5 95.5,75.5C 92.1116,75.8739 90.2782,77.8739 90,81.5C 87.0672,85.991 82.9005,87.6576 77.5,86.5C 77.6567,85.1266 77.49,83.7932 77,82.5C 71.8334,79.2339 70.1667,74.5672 72,68.5C 72.6667,67.1667 73.3333,67.1667 74,68.5C 75.0315,71.8585 76.8649,74.5251 79.5,76.5C 81.8629,78.0017 84.0295,77.6684 86,75.5C 86.6667,71.5 86.6667,67.5 86,63.5C 82.7147,58.5463 79.048,53.8797 75,49.5C 70.1198,40.112 69.2865,30.4454 72.5,20.5C 74.8606,18.8061 76.8606,16.8061 78.5,14.5 Z"/></g>
<g><path style="opacity:1" fill="#030309" d="M 48.5,28.5 C 50.3817,28.5107 52.3817,28.844 54.5,29.5C 55.6661,43.8217 55.8328,58.1551 55,72.5C 53.1748,75.8511 51.0082,76.1844 48.5,73.5C 48.5,58.5 48.5,43.5 48.5,28.5 Z"/></g>
<g><path style="opacity:1" fill="#05070d" d="M 79.5,76.5 C 77.78,73.1108 77.1134,69.4441 77.5,65.5C 74.8333,65.5 72.1667,65.5 69.5,65.5C 68.6787,68.6414 68.1787,71.9748 68,75.5C 67.3333,62.1667 67.3333,48.8333 68,35.5C 68.5934,39.3524 69.7601,43.0191 71.5,46.5C 70.1245,50.0372 71.4578,51.7039 75.5,51.5C 75.2148,53.288 75.5481,54.9547 76.5,56.5C 79.1581,59.1239 81.8248,61.7906 84.5,64.5C 84.8333,66 85.1667,67.5 85.5,69C 85.824,73.4983 83.824,75.9983 79.5,76.5 Z"/></g>
<g><path style="opacity:1" fill="#1db9db" d="M 49.5,77.5 C 51.099,77.7678 52.4324,77.4345 53.5,76.5C 54.1667,76.5 54.8333,76.5 55.5,76.5C 56.397,75.4019 57.2303,75.4019 58,76.5C 58.3742,75.5838 58.8742,74.7504 59.5,74C 58.1838,59.2123 58.3505,44.3789 60,29.5C 60.7096,28.0267 61.8762,27.3601 63.5,27.5C 63.5406,43.1541 63.7073,58.8208 64,74.5C 62.9905,78.8429 60.4905,82.0096 56.5,84C 57.8333,84.6667 57.8333,85.3333 56.5,86C 51.798,86.8283 47.1313,86.6616 42.5,85.5C 42.7093,84.914 43.0426,84.414 43.5,84C 42.1068,82.8289 41.2735,81.3289 41,79.5C 40.5001,62.8367 40.3334,46.17 40.5,29.5C 42.1667,29.5 43.8333,29.5 45.5,29.5C 45.3334,46.17 45.5001,62.8367 46,79.5C 47.1475,78.5419 48.1475,78.8753 49,80.5C 49.4828,79.552 49.6495,78.552 49.5,77.5 Z"/></g>
<g><path style="opacity:1" fill="#091922" d="M 95.5,63.5 C 96.8181,70.0112 96.8181,76.6778 95.5,83.5C 93.9713,84.7629 92.3046,85.7629 90.5,86.5C 92.5735,83.07 94.2401,79.4033 95.5,75.5C 95.5,71.5 95.5,67.5 95.5,63.5 Z"/></g>
<g><path style="opacity:1" fill="#3aa7bf" d="M 69.5,65.5 C 72.1667,65.5 74.8333,65.5 77.5,65.5C 77.1134,69.4441 77.78,73.1108 79.5,76.5C 76.8649,74.5251 75.0315,71.8585 74,68.5C 73.3333,67.1667 72.6667,67.1667 72,68.5C 70.1667,74.5672 71.8334,79.2339 77,82.5C 77.49,83.7932 77.6567,85.1266 77.5,86.5C 82.9005,87.6576 87.0672,85.991 90,81.5C 90.2782,77.8739 92.1116,75.8739 95.5,75.5C 94.2401,79.4033 92.5735,83.07 90.5,86.5C 82.0658,90.4648 75.7325,88.4648 71.5,80.5C 69.8483,75.6591 69.1817,70.6591 69.5,65.5 Z"/></g>
<g><path style="opacity:1" fill="#041727" d="M 71.5,80.5 C 75.7325,88.4648 82.0658,90.4648 90.5,86.5C 90.0629,88.0744 89.0629,89.2411 87.5,90C 78.803,92.0782 73.4697,88.9116 71.5,80.5 Z"/></g>
</svg>
